<svg xmlns="http://www.w3.org/2000/svg" viewBox="0 0 64 64" width="64" height="64"><rect width="64" height="64" fill="#F5F0E8"/><g class="mill" transform="translate(32 32)"><g stroke="#7B8FA1" stroke-width="2.5" stroke-opacity="0.7" stroke-linecap="round"><line x1="0" y1="0" x2="18.61" y2="4.99"/><line x1="0" y1="0" x2="13.62" y2="13.62"/><line x1="0" y1="0" x2="4.99" y2="18.61"/><line x1="0" y1="0" x2="-4.99" y2="18.61"/><line x1="0" y1="0" x2="-13.62" y2="13.62"/><line x1="0" y1="0" x2="-18.61" y2="4.99"/><line x1="0" y1="0" x2="-18.61" y2="-4.99"/><line x1="0" y1="0" x2="-13.62" y2="-13.62"/><line x1="0" y1="0" x2="-4.99" y2="-18.61"/><line x1="0" y1="0" x2="4.99" y2="-18.61"/><line x1="0" y1="0" x2="13.62" y2="-13.62"/><line x1="0" y1="0" x2="18.61" y2="-4.99"/></g><circle r="3.557052631578948" fill="#2C2C2A"/><circle cx="12.15" cy="-21.05" r="3.8534736842105266" fill="none" stroke="#FF7A05" stroke-width="2.5"/><circle cx="24.31" cy="0.00" r="3.8534736842105266" fill="none" stroke="#65A30D" stroke-width="2.5"/><circle cx="12.15" cy="21.05" r="3.8534736842105266" fill="none" stroke="#FF7A05" stroke-width="2.5"/><circle cx="-12.15" cy="21.05" r="3.8534736842105266" fill="none" stroke="#65A30D" stroke-width="2.5"/><circle cx="-24.31" cy="0.00" r="3.8534736842105266" fill="none" stroke="#FF7A05" stroke-width="2.5"/><circle cx="-12.15" cy="-21.05" r="3.8534736842105266" fill="none" stroke="#65A30D" stroke-width="2.5"/><circle r="29.642105263157898" fill="none" stroke="#B4B2AC" stroke-width="1.5" stroke-dasharray="1.55 1.03"/></g></svg>